:SAMPLES-PER-SECOND 30
:FULLY-SPECIFIED
:DEGREES
87
root  -2.00632 35.0556 7.87016 172.951 36.4146 175.23
RightUpLeg  -32.0839 -7.70165 -19.8025
RightLeg  18.439 -11.1747 -4.32095
RightFoot  30.4297 -5.05222 13.7778
RightToes  -5.8209e-011 0 -3.6325e-017
Spine  8.5778 -2.9938 -26.6614
Spine1  19.0498 -12.5377 19.2167
HEad  -2.40445 40.7779 -17.1256
LeftShoulder1  0.501622 0.28776 -8.10031
LeftArm  -16.23 -38.6343 -49.6819
LeftForeArm  -5.31924 -55.1685 -16.7747
LeftHand  -3.27919 -3.75382 40.3211
RightShoulder  1.37149 2.17762 17.6058
RightArm  -40.8506 -44.4491 46.2465
RightForeArm  -1.43521 9.40571 7.78847
RightHand  -1.57961 4.66579 -18.3696
LeftUpLeg  0.318923 10.9564 10.2122
LeftLeg  43.7655 1.55588 2.04122
LeftFoot  -33.4159 -3.5485 -19.0736
LeftToes  6.82088e-011 -2.45093e-011 5.71991e-013
88
root  -0.417884 34.8075 7.82793 173.729 33.3256 175.728
RightUpLeg  -33.1722 -7.86281 -21.297
RightLeg  19.1969 -10.6537 -4.2967
RightFoot  33.4925 -5.35183 13.5162
RightToes  -5.8209e-011 0 -3.6325e-017
Spine  9.82726 -3.29955 -30.2564
Spine1  16.083 -14.2639 23.7021
HEad  2.94134 40.229 -15.1995
LeftShoulder1  0.336581 1.31522 -7.79994
LeftArm  -21.0113 -38.2588 -39.9036
LeftForeArm  -2.51706 -59.3255 -19.6829
LeftHand  -3.35865 -3.76811 41.1324
RightShoulder  1.41951 2.41753 17.4239
RightArm  -41.6546 -52.3205 43.6126
RightForeArm  -7.17614 10.1576 7.47803
RightHand  -1.59088 4.33757 -19.0973
LeftUpLeg  1.25583 9.03097 13.521
LeftLeg  42.2704 -0.97093 -0.520524
LeftFoot  -33.1666 -3.93594 -21.2342
LeftToes  6.82088e-011 -2.45093e-011 5.71991e-013
89
root  1.35833 34.7969 7.73378 175.727 29.8137 177.01
RightUpLeg  -33.4999 -8.35047 -22.7264
RightLeg  19.342 -11.3633 -4.58909
RightFoot  35.4024 -5.76234 13.8805
RightToes  -5.8209e-011 0 -3.6325e-017
Spine  10.5359 -3.14571 -30.6909
Spine1  12.9247 -14.0461 25.8182
HEad  4.2073 37.1887 -12.8549
LeftShoulder1  0.249645 1.82761 -7.3646
LeftArm  -20.2163 -37.1145 -37.8296
LeftForeArm  1.58246 -63.6029 -23.5323
LeftHand  -2.88111 -3.14481 38.0357
RightShoulder  1.6076 3.18619 17.4716
RightArm  -44.8952 -58.9902 44.4864
RightForeArm  -13.7926 10.6768 6.70717
RightHand  -1.62819 3.93145 -20.3443
LeftUpLeg  1.88098 5.81715 16.9974
LeftLeg  38.5008 -1.5838 -0.964221
LeftFoot  -31.4053 -3.96739 -23.2003
LeftToes  6.82088e-011 -2.45093e-011 5.71991e-013
90
root  3.26056 35.0341 7.5587 178.984 25.0345 178.541
RightUpLeg  -32.2356 -9.08774 -24.8827
RightLeg  17.3879 -12.4512 -4.49379
RightFoot  35.5116 -6.33475 15.1562
RightToes  -5.8209e-011 0 -3.6325e-017
Spine  10.1188 -2.60792 -28.3854
Spine1  9.77365 -12.1333 25.8818
HEad  1.76727 31.7628 -10.2226
LeftShoulder1  0.332113 1.44189 -8.47573
LeftArm  -11.7378 -36.96 -45.5711
LeftForeArm  6.33682 -66.1666 -26.2809
LeftHand  -2.31324 -2.54984 33.264
RightShoulder  1.82919 3.95301 18.0116
RightArm  -51.1932 -62.4554 50.0848
RightForeArm  -20.5714 11.2461 5.4851
RightHand  -1.73976 3.88468 -21.7843
LeftUpLeg  1.14732 0.8446 20.2022
LeftLeg  32.8265 -1.26674 -0.506127
LeftFoot  -27.3727 -3.5931 -26.3591
LeftToes  6.82088e-011 -2.45093e-011 5.71991e-013
91
root  5.14432 35.4056 7.41768 -177.489 17.9786 179.206
RightUpLeg  -28.6329 -10.6044 -28.3306
RightLeg  13.4939 -11.8986 -3.86977
RightFoot  35.0287 -6.26444 15.1635
RightToes  -5.8209e-011 0 -3.6325e-017
Spine  10.3988 -1.42659 -25.0074
Spine1  5.65594 -9.31411 24.9821
HEad  -3.36561 24.7102 -7.67981
LeftShoulder1  0.751021 -0.364072 -12.1558
LeftArm  4.07338 -35.7526 -58.2134
LeftForeArm  6.46699 -65.1414 -24.961
LeftHand  -2.07141 -2.58564 29.8249
RightShoulder  2.02549 4.55708 18.6595
RightArm  -55.1496 -61.3922 54.6636
RightForeArm  -24.3137 11.0512 4.5949
RightHand  -1.98942 4.54625 -23.2138
LeftUpLeg  -2.32078 -5.7819 23.0716
LeftLeg  27.4027 -0.453691 0.0826075
LeftFoot  -20.3039 -2.34258 -30.968
LeftToes  6.82088e-011 -2.45093e-011 5.71991e-013
92
root  6.95317 35.7217 7.39524 -174.204 9.3031 178.343
RightUpLeg  -23.3347 -14.0881 -31.8593
RightLeg  9.50691 -8.41561 -4.16951
RightFoot  36.2859 -6.18943 14.5438
RightToes  -5.8209e-011 0 -3.6325e-017
Spine  12.0107 0.101695 -20.03
Spine1  1.13696 -5.81298 21.2356
HEad  -11.0521 16.6704 -4.43746
LeftShoulder1  1.40371 -2.65801 -16.0619
LeftArm  22.0529 -32.0797 -69.8972
LeftForeArm  2.48255 -59.9472 -19.8212
LeftHand  -1.90878 -2.87268 26.6191
RightShoulder  2.17729 5.27009 18.3426
RightArm  -53.0223 -57.0768 53.4185
RightForeArm  -21.8016 10.7525 4.74616
RightHand  -2.25204 5.34295 -24.3061
LeftUpLeg  -9.07538 -12.3844 25.9386
LeftLeg  24.3638 2.00321 1.34167
LeftFoot  -10.5856 0.241058 -32.8918
LeftToes  6.82088e-011 -2.45093e-011 5.71991e-013
93
root  8.66388 35.7159 7.50282 -170.806 1.66782 176.581
RightUpLeg  -18.7828 -15.66 -35.5986
RightLeg  8.41422 -7.35801 -5.14727
RightFoot  37.313 -7.94264 18.0528
RightToes  -5.8209e-011 0 -3.6325e-017
Spine  13.1274 1.38123 -11.6924
Spine1  -1.58515 -1.73221 11.7413
HEad  -19.6095 8.73038 0.600256
LeftShoulder1  1.98754 -4.57043 -18.0538
LeftArm  35.2516 -26.7809 -76.6688
LeftForeArm  3.56547 -54.0028 -15.2366
LeftHand  -1.73892 -3.50586 22.7721
RightShoulder  2.022 5.29528 16.3122
RightArm  -47.848 -49.9966 47.0645
RightForeArm  -14.8646 12.008 5.24444
RightHand  -2.41614 5.87037 -24.8373
LeftUpLeg  -18.1331 -16.8155 28.7853
LeftLeg  25.1424 4.89677 2.86454
LeftFoot  -1.69497 2.53545 -29.4352
LeftToes  6.82088e-011 -2.45093e-011 5.71991e-013
94
root  10.2779 35.3155 7.81387 -168.21 -2.2462 175.148
RightUpLeg  -17.5372 -12.1332 -38.8367
RightLeg  12.1534 -12.1218 -5.51252
RightFoot  32.3928 -10.5048 26.5934
RightToes  -5.8209e-011 0 -3.6325e-017
Spine  14.109 2.1958 -2.32369
Spine1  -2.26801 1.86743 0.335493
HEad  -24.7313 4.26868 5.20199
LeftShoulder1  2.37829 -5.90553 -18.7488
LeftArm  37.145 -19.6769 -75.3832
LeftForeArm  12.079 -52.89 -13.9598
LeftHand  -2.03421 -4.94343 22.7617
RightShoulder  1.31239 3.42802 11.6651
RightArm  -41.8373 -37.0166 37.2264
RightForeArm  -10.5299 15.3113 5.32739
RightHand  -2.66917 6.53907 -25.8339
LeftUpLeg  -25.9806 -17.9712 30.6553
LeftLeg  29.1199 4.28657 2.86654
LeftFoot  1.26262 2.90948 -25.8525
LeftToes  6.82088e-011 -2.45093e-011 5.71991e-013
95
root  11.8308 34.5864 8.44959 -168.213 -1.6488 174.736
RightUpLeg  -20.6124 -8.63903 -39.5792
RightLeg  19.8506 -14.1463 -5.45341
RightFoot  19.9894 -10.2135 35.8732
RightToes  -5.8209e-011 0 -3.6325e-017
Spine  17.9568 2.22368 3.8053
Spine1  -2.97464 3.65422 -5.67549
HEad  -23.8538 5.93395 5.22786
LeftShoulder1  2.51073 -6.36698 -18.9159
LeftArm  27.892 -10.2863 -67.6646
LeftForeArm  17.2796 -56.6187 -15.7405
LeftHand  -2.66135 -5.54424 28.0795
RightShoulder  0.472682 0.491655 3.71762
RightArm  -38.0744 -15.2991 28.7767
RightForeArm  -9.39699 23.2463 5.70687
RightHand  -3.12919 7.59251 -27.7657
LeftUpLeg  -29.6097 -15.8906 30.4769
LeftLeg  35.4006 -0.337049 0.0374146
LeftFoot  -3.21955 1.99127 -27.6701
LeftToes  6.82088e-011 -2.45093e-011 5.71991e-013
96
root  13.3057 33.7218 9.32035 -170.007 2.19095 174.962
RightUpLeg  -26.855 -9.19316 -37.0703
RightLeg  27.9824 -7.80641 -4.69083
RightFoot  7.01593 -6.5773 39.0994
RightToes  -5.8209e-011 0 -3.6325e-017
Spine  24.6074 1.1894 8.00577
Spine1  -4.07797 4.25711 -8.29268
HEad  -21.1348 11.3616 0.853982
LeftShoulder1  2.4082 -6.27549 -18.0356
LeftArm  16.0704 0.539381 -60.2042
LeftForeArm  13.5242 -58.3468 -17.2886
LeftHand  -2.75938 -4.33348 32.408
RightShoulder  0.0529466 -1.76249 -5.69718
RightArm  -40.6746 9.76222 21.9775
RightForeArm  -5.88445 37.9467 9.0762
RightHand  -3.4396 8.17713 -29.1389
LeftUpLeg  -29.7402 -11.4335 28.6799
LeftLeg  42.368 -2.31779 -1.75635
LeftFoot  -8.95803 0.741396 -31.8169
LeftToes  6.82088e-011 -2.45093e-011 5.71991e-013
97
root  14.6245 33.0141 10.0838 -170.356 6.57982 175.311
RightUpLeg  -34.442 -8.34103 -34.5059
RightLeg  35.1808 -3.62073 -3.02187
RightFoot  0.0327462 -3.7219 36.281
RightToes  -5.8209e-011 0 -3.6325e-017
Spine  30.3149 -0.425676 13.6969
Spine1  -4.25481 5.61957 -13.545
HEad  -22.1259 15.3872 -3.10514
LeftShoulder1  2.18246 -6.20398 -15.7084
LeftArm  8.57676 9.2218 -56.6318
LeftForeArm  8.975 -53.8022 -14.8275
LeftHand  -2.24284 -2.91647 30.9293
RightShoulder  -0.011219 -3.09976 -14.9049
RightArm  -49.4523 26.9192 12.9365
RightForeArm  4.38526 56.5101 17.5119
RightHand  -3.43766 8.096 -29.2797
LeftUpLeg  -29.6741 -6.49946 26.8774
LeftLeg  47.5236 2.84675 3.80499
LeftFoot  -10.9727 0.180357 -32.9092
LeftToes  6.82088e-011 -2.45093e-011 5.71991e-013
